{"title":"Mission Impossible 1988 TV Season Disc3 (dvdripmp4)","uid":8409605,"size":3038107833,"categoryP":"video","categoryS":"tv_shows","magnet":"?xt=urn:btih:df2a48913a9b3727f1c67e40654b877c2a36d0d7&amp;dn=Mission+Impossible+1988+TV+Season+Disc3+%28dvdripmp4%29&amp;tr=udp%3A%2F%2Ftracker.openbittorrent.com%3A80&amp;tr=udp%3A%2F%2Fopen.demonii.com%3A1337&amp;tr=udp%3A%2F%2Ftracker.coppersurfer.tk%3A6969&amp;tr=udp%3A%2F%2Fexodus.desync.com%3A6969","seeders":1,"leechers":6,"uploader":"russell887","files":4,"time":1366886774,"description":"MISSION:IMPOSSIBLE  The 1988 TV SEASON  4 Episodes (Disc #3) \n\nEPISODES: \n\n#9- The Haunting \nThe police think the son of a wealthy and influential Hawaiian family is responsible for a slew of murders in the U.S. Jim Phelps and his team get the mission to find the evidence that will prove his guilt...or innocence. \n\n#10- The Lions \nA Prince and his uncle battle it out for the throne.Jim Phelps and the IMF Agents get the mission to make sure it's not a battle to the death. \n\n#11- The Greek \nJim and his team must neutralizea greek tycoon who runs an international black market drug ring. \n\n#12- The Fortune \nA dictator seeks asylum in the United States after stealing all of his countrys funds.Now, the team must locate the money and steal it back. \n\nINFO: \n\nFormat                                   : MPEG-4\nFormat profile                           : Base Media / Version 2\nCodec ID                                 : mp42\nOverall bit rate mode                    : Variable\nOverall bit rate                         : 2 061 Kbps\n\nVideo\nID                                       : 1\nFormat                                   : AVC\nFormat/Info                              : Advanced Video Codec\nFormat profile                           : &lt;a class=&quot;__cf_email__&quot; href=&quot;/cdn-cgi/l/email-protection&quot; data-cfemail=&quot;d69bb7bfb8969ae5f8e6&quot;&gt;[email&amp;#160;protected]&lt;/a&gt;&lt;script cf-hash='f9e31' type=&quot;text/javascript&quot;&gt;\n/* &lt;![CDATA[ */!function(){try{var t=&quot;currentScript&quot;in document?document.currentScript:function(){for(var t=document.getElementsByTagName(&quot;script&quot;),e=t.length;e--;)if(t[e].getAttribute(&quot;cf-hash&quot;))return t[e]}();if(t&amp;&amp;t.previousSibling){var e,r,n,i,c=t.previousSibling,a=c.getAttribute(&quot;data-cfemail&quot;);if(a){for(e=&quot;&quot;,r=parseInt(a.substr(0,2),16),n=2;a.length-n;n+=2)i=parseInt(a.substr(n,2),16)^r,e+=String.fromCharCode(i);e=document.createTextNode(e),c.parentNode.replaceChild(e,c)}}}catch(u){}}();/* ]]&gt; */&lt;/script&gt;\nFormat settings, CABAC                   : Yes\nFormat settings, ReFrames                : 2 frames\nCodec ID                                 : avc1\nCodec ID/Info                            : Advanced Video Coding\nDuration                                 : 47mn 50s\nBit rate mode                            : Variable\nBit rate                                 : 1 860 Kbps\nMaximum bit rate                         : 7 343 Kbps\nWidth                                    : 720 pixels\nHeight                                   : 480 pixels\nDisplay aspect ratio                     : 4:3\nOriginal display aspect ratio            : 4:3\nFrame rate mode                          : Constant\nFrame rate                               : 29.970 fps\nStandard                                 : NTSC\nColor space                              : YUV\nChroma subsampling                       : 4:2:0\nBit depth                                : 8 bits\nScan type                                : Progressive\nBits/(Pixel*Frame)                       : 0.180\nStream size                              : 637 MiB (90%)\nLanguage                                 : English\n\nAudio\nID                                       : 2\nFormat                                   : AAC\nFormat/Info                              : Advanced Audio Codec\nFormat profile                           : LC\nCodec ID                                 : 40\nBit rate mode                            : Variable\nBit rate                                 : 192 Kbps\nMaximum bit rate                         : 234 Kbps\nChannel(s)                               : 2 channels\nChannel positions                        : Front: L R\nSampling rate                            : 48.0 KHz\nCompression mode                         : Lossy\nStream size                              : 65.7 MiB (9%)\nTitle                                    : eng\nLanguage                                 : English\n\nSize: 2.82GB","torrent":{"xt":"urn:btih:df2a48913a9b3727f1c67e40654b877c2a36d0d7","amp;dn":"Mission+Impossible+1988+TV+Season+Disc3+%28dvdripmp4%29","amp;tr":["udp%3A%2F%2Ftracker.openbittorrent.com%3A80","udp%3A%2F%2Fopen.demonii.com%3A1337","udp%3A%2F%2Ftracker.coppersurfer.tk%3A6969","udp%3A%2F%2Fexodus.desync.com%3A6969"],"infoHash":"df2a48913a9b3727f1c67e40654b877c2a36d0d7","infoHashBuffer":{"type":"Buffer","data":[223,42,72,145,58,155,55,39,241,198,126,64,101,75,135,124,42,54,208,215]},"announce":[],"urlList":[]}}